{
  "accessors": [
    {
      "bufferView": 2,
      "componentType": 5126,
      "count": 6827,
      "max": [
        2.148362398147583,
        5.320671081542969,
        1.484678864479065
      ],
      "min": [
        -2.148360013961792,
        -5.108874320983887,
        -1.066675066947937
      ],
      "type": "VEC3"
    },
    {
      "bufferView": 2,
      "byteOffset": 81924,
      "componentType": 5126,
      "count": 6827,
      "max": [
        1.0,
        1.0,
        1.0
      ],
      "min": [
        -1.0,
        -1.0,
        -1.0
      ],
      "type": "VEC3"
    },
    {
      "bufferView": 1,
      "componentType": 5126,
      "count": 6827,
      "max": [
        0.9528777003288269,
        0.9697135090827942
      ],
      "min": [
        0.2840898334980011,
        0.34014496207237244
      ],
      "type": "VEC2"
    },
    {
      "bufferView": 0,
      "componentType": 5125,
      "count": 22374,
      "type": "SCALAR"
    },
    {
      "bufferView": 2,
      "byteOffset": 163848,
      "componentType": 5126,
      "count": 2212,
      "max": [
        0.9989280700683594,
        0.9839144349098206,
        2.631913900375366
      ],
      "min": [
        -0.9807149767875671,
        -1.0160856246948242,
        -2.6319258213043213
      ],
      "type": "VEC3"
    },
    {
      "bufferView": 2,
      "byteOffset": 190392,
      "componentType": 5126,
      "count": 2212,
      "max": [
        1.0,
        1.0,
        1.0
      ],
      "min": [
        -1.0,
        -1.0,
        -1.0
      ],
      "type": "VEC3"
    },
    {
      "bufferView": 1,
      "byteOffset": 54616,
      "componentType": 5126,
      "count": 2212,
      "max": [
        0.831250011920929,
        0.9435232281684875
      ],
      "min": [
        0.23014195263385773,
        0.6536749005317688
      ],
      "type": "VEC2"
    },
    {
      "bufferView": 0,
      "byteOffset": 89496,
      "componentType": 5125,
      "count": 6240,
      "type": "SCALAR"
    },
    {
      "bufferView": 2,
      "byteOffset": 216936,
      "componentType": 5126,
      "count": 2212,
      "max": [
        0.9989280700683594,
        0.9839144349098206,
        2.631913900375366
      ],
      "min": [
        -0.9807149767875671,
        -1.0160856246948242,
        -2.6319258213043213
      ],
      "type": "VEC3"
    },
    {
      "bufferView": 2,
      "byteOffset": 243480,
      "componentType": 5126,
      "count": 2212,
      "max": [
        1.0,
        1.0,
        1.0
      ],
      "min": [
        -1.0,
        -1.0,
        -1.0
      ],
      "type": "VEC3"
    },
    {
      "bufferView": 1,
      "byteOffset": 72312,
      "componentType": 5126,
      "count": 2212,
      "max": [
        0.831250011920929,
        0.9435232281684875
      ],
      "min": [
        0.23014195263385773,
        0.6536749005317688
      ],
      "type": "VEC2"
    },
    {
      "bufferView": 0,
      "byteOffset": 114456,
      "componentType": 5125,
      "count": 6240,
      "type": "SCALAR"
    }
  ],
  "asset": {
    "extras": {
      "author": "W1ZZERZ (https://sketchfab.com/W1ZZERZ)",
      "license": "CC-BY-4.0 (http://creativecommons.org/licenses/by/4.0/)",
      "source": "https://sketchfab.com/3d-models/nissan-silvia-s13-7776c73c55f246849e291e3fd47f0305",
      "title": "Nissan Silvia S13"
    },
    "generator": "Sketchfab-13.58.0",
    "version": "2.0"
  },
  "bufferViews": [
    {
      "buffer": 0,
      "byteLength": 139416,
      "name": "floatBufferViews",
      "target": 34963
    },
    {
      "buffer": 0,
      "byteLength": 90008,
      "byteOffset": 139416,
      "byteStride": 8,
      "name": "floatBufferViews",
      "target": 34962
    },
    {
      "buffer": 0,
      "byteLength": 270024,
      "byteOffset": 229424,
      "byteStride": 12,
      "name": "floatBufferViews",
      "target": 34962
    }
  ],
  "buffers": [
    {
      "byteLength": 499448,
      "uri": "scene.bin"
    }
  ],
  "images": [
    {
      "uri": "textures/Material.001_baseColor.png"
    }
  ],
  "materials": [
    {
      "doubleSided": true,
      "name": "Material.001",
      "pbrMetallicRoughness": {
        "baseColorTexture": {
          "index": 0
        },
        "metallicFactor": 0.0
      }
    }
  ],
  "meshes": [
    {
      "name": "silvia S13_Material.001_0",
      "primitives": [
        {
          "attributes": {
            "NORMAL": 1,
            "POSITION": 0,
            "TEXCOORD_0": 2
          },
          "indices": 3,
          "material": 0,
          "mode": 4
        }
      ]
    },
    {
      "name": "front wheels_Material.001_0",
      "primitives": [
        {
          "attributes": {
            "NORMAL": 5,
            "POSITION": 4,
            "TEXCOORD_0": 6
          },
          "indices": 7,
          "material": 0,
          "mode": 4
        }
      ]
    },
    {
      "name": "rear wheels_Material.001_0",
      "primitives": [
        {
          "attributes": {
            "NORMAL": 9,
            "POSITION": 8,
            "TEXCOORD_0": 10
          },
          "indices": 11,
          "material": 0,
          "mode": 4
        }
      ]
    }
  ],
  "nodes": [
    {
      "children": [
        1
      ],
      "matrix": [
        1.0,
        0.0,
        0.0,
        0.0,
        0.0,
        2.220446049250313e-16,
        -1.0,
        0.0,
        0.0,
        1.0,
        2.220446049250313e-16,
        0.0,
        0.0,
        0.0,
        0.0,
        1.0
      ],
      "name": "Sketchfab_model"
    },
    {
      "children": [
        2
      ],
      "matrix": [
        0.009999999776482582,
        0.0,
        0.0,
        0.0,
        0.0,
        0.0,
        0.009999999776482582,
        0.0,
        0.0,
        -0.009999999776482582,
        0.0,
        0.0,
        0.0,
        0.0,
        0.0,
        1.0
      ],
      "name": "Silvia S13.fbx"
    },
    {
      "children": [
        3,
        5,
        7
      ],
      "name": "RootNode"
    },
    {
      "children": [
        4
      ],
      "matrix": [
        29.291629791259766,
        0.0,
        0.0,
        0.0,
        -0.0,
        -4.77221222608605e-06,
        -29.29162979125938,
        0.0,
        0.0,
        29.29162979125938,
        -4.77221222608605e-06,
        0.0,
        -3.561923949746415e-05,
        38.73518753051758,
        18.983333587646484,
        1.0
      ],
      "name": "silvia S13"
    },
    {
      "mesh": 0,
      "name": "silvia S13_Material.001_0"
    },
    {
      "children": [
        6
      ],
      "matrix": [
        -9.509198273135289e-07,
        -21.75450897216795,
        -2.4152356750315428e-15,
        0.0,
        -9.509198285211468e-07,
        4.347424215056777e-14,
        -21.75450897216795,
        0.0,
        21.754508972167926,
        -9.509198285211468e-07,
        -9.509198273135289e-07,
        0.0,
        0.00013113021850585938,
        18.006818771362305,
        102.2086410522461,
        1.0
      ],
      "name": "front wheels"
    },
    {
      "mesh": 1,
      "name": "front wheels_Material.001_0"
    },
    {
      "children": [
        8
      ],
      "matrix": [
        -9.509198273135289e-07,
        -21.75450897216795,
        -2.4152356750315428e-15,
        0.0,
        -9.509198285211468e-07,
        4.347424215056777e-14,
        -21.75450897216795,
        0.0,
        21.754508972167926,
        -9.509198285211468e-07,
        -9.509198273135289e-07,
        0.0,
        0.00013113021850585938,
        18.006818771362305,
        -65.63509368896484,
        1.0
      ],
      "name": "rear wheels"
    },
    {
      "mesh": 2,
      "name": "rear wheels_Material.001_0"
    }
  ],
  "samplers": [
    {
      "magFilter": 9729,
      "minFilter": 9987,
      "wrapS": 10497,
      "wrapT": 10497
    }
  ],
  "scene": 0,
  "scenes": [
    {
      "name": "Sketchfab_Scene",
      "nodes": [
        0
      ]
    }
  ],
  "textures": [
    {
      "sampler": 0,
      "source": 0
    }
  ]
}
